<?xml version="1.0" encoding="utf-8"?>
<!-- Generator: Adobe Illustrator 16.0.0, SVG Export Plug-In . SVG Version: 6.00 Build 0)  -->
<!DOCTYPE svg PUBLIC "-//W3C//DTD SVG 1.1//EN" "http://www.w3.org/Graphics/SVG/1.1/DTD/svg11.dtd">
<svg version="1.1" id="Layer_1" xmlns="http://www.w3.org/2000/svg" xmlns:xlink="http://www.w3.org/1999/xlink" x="0px" y="0px"
	 width="491.494px" height="187.445px" viewBox="0 0 491.494 187.445" enable-background="new 0 0 491.494 187.445"
	 xml:space="preserve">
<g>
	
		<linearGradient id="SVGID_1_" gradientUnits="userSpaceOnUse" x1="680.9629" y1="243.5088" x2="681.9922" y2="242.282" gradientTransform="matrix(110.6709 0 0 110.6709 -75334.7578 -26802.3047)">
		<stop  offset="0" style="stop-color:#F5E004"/>
		<stop  offset="0.0367" style="stop-color:#DCD322"/>
		<stop  offset="0.2131" style="stop-color:#63A143"/>
		<stop  offset="0.2906" style="stop-color:#0E9347"/>
		<stop  offset="0.3473" style="stop-color:#118E45"/>
		<stop  offset="0.6091" style="stop-color:#16783D"/>
		<stop  offset="0.8356" style="stop-color:#166C38"/>
		<stop  offset="0.9997" style="stop-color:#166735"/>
	</linearGradient>
	<path fill="url(#SVGID_1_)" d="M7.438,130.024c-4.244-9.118-6.285-18.288-7.083-27.689C-3.75,53.758,28.167,11.426,75.997,1.785
		c50.764-10.23,101.39,24.65,110.01,75.719c0.411,2.454-0.277,3.703-2.398,4.917c-24.17,13.871-48.194,27.99-72.454,41.706
		c-12.665,7.163-25.399,6.396-37.614-1.592c-0.613-0.405-1.173-0.896-1.707-1.388c-0.207-0.18-0.277-0.508-0.501-0.964
		c25.877-14.955,51.761-29.919,77.91-45.029c-7.634-20.201-21.414-33.476-42.134-38.323C70.286,28.204,35.952,55.172,35.136,93.02
		c-0.116,5.372,1.203,10.804,2.142,16.152c0.37,2.109,0.463,3.426-1.732,4.656C26.287,119.003,17.159,124.394,7.438,130.024z"/>
	
		<linearGradient id="SVGID_2_" gradientUnits="userSpaceOnUse" x1="679.8496" y1="244.4063" x2="680.7683" y2="243.3112" gradientTransform="matrix(98.9961 0 0 98.9961 -67240.9531 -24006.3809)">
		<stop  offset="0" style="stop-color:#F5E004"/>
		<stop  offset="0.0367" style="stop-color:#DCD322"/>
		<stop  offset="0.2131" style="stop-color:#63A143"/>
		<stop  offset="0.2906" style="stop-color:#0E9347"/>
		<stop  offset="0.3473" style="stop-color:#118E45"/>
		<stop  offset="0.6091" style="stop-color:#16783D"/>
		<stop  offset="0.8356" style="stop-color:#166C38"/>
		<stop  offset="0.9997" style="stop-color:#166735"/>
	</linearGradient>
	<path fill="url(#SVGID_2_)" d="M19.313,150.222c9.729-5.621,19.129-11.132,28.645-16.435c0.833-0.466,2.876,0.024,3.616,0.791
		c18.651,19.286,49.24,23.884,74.776,8.068c18.167-11.271,36.958-21.516,55.478-32.2c1.252-0.732,2.552-1.37,3.967-2.119
		c-3.147,29.334-26.811,65.263-68.447,76.067C77.306,194.795,38.746,177.421,19.313,150.222z"/>
	
		<linearGradient id="SVGID_3_" gradientUnits="userSpaceOnUse" x1="655.5562" y1="260.4912" x2="656.7206" y2="259.1032" gradientTransform="matrix(34.1191 0 0 34.1191 -22304.3516 -8784.2227)">
		<stop  offset="0" style="stop-color:#F5E004"/>
		<stop  offset="0.0367" style="stop-color:#DCD322"/>
		<stop  offset="0.2131" style="stop-color:#63A143"/>
		<stop  offset="0.2906" style="stop-color:#0E9347"/>
		<stop  offset="0.3473" style="stop-color:#118E45"/>
		<stop  offset="0.6091" style="stop-color:#16783D"/>
		<stop  offset="0.8356" style="stop-color:#166C38"/>
		<stop  offset="0.9997" style="stop-color:#166735"/>
	</linearGradient>
	<path fill="url(#SVGID_3_)" d="M59.138,100.139c-2.146-16.616,4.977-30.728,18.344-37.626c12.581-6.493,28.763-4.624,38.66,4.737
		C97.248,78.141,78.463,88.981,59.138,100.139z"/>
	
		<linearGradient id="SVGID_4_" gradientUnits="userSpaceOnUse" x1="374.0005" y1="-207.3091" x2="452.5027" y2="-113.7535" gradientTransform="matrix(1 0 0 -1 -164.27 -67.2148)">
		<stop  offset="0" style="stop-color:#F5E004"/>
		<stop  offset="0.0367" style="stop-color:#DCD322"/>
		<stop  offset="0.2131" style="stop-color:#63A143"/>
		<stop  offset="0.2906" style="stop-color:#0E9347"/>
		<stop  offset="0.3473" style="stop-color:#118E45"/>
		<stop  offset="0.6091" style="stop-color:#16783D"/>
		<stop  offset="0.8356" style="stop-color:#166C38"/>
		<stop  offset="0.9997" style="stop-color:#166735"/>
	</linearGradient>
	<path fill="url(#SVGID_4_)" d="M206.938,121.887c0-5.01,4.293-7.506,13.058-7.506c8.768,0,13.058,2.496,13.058,7.506v0.535
		c0,7.869,6.797,13.414,16.277,13.414c10.194,0,16.096-4.83,16.096-13.233c0-9.299-5.901-14.49-24.506-20.396
		c-22.715-7.331-34.163-20.026-34.163-37.917c0-11.271,3.936-20.036,11.625-26.653c7.693-6.616,17.532-9.838,29.336-9.838
		c11.986,0,22,3.218,29.689,9.658c7.693,6.436,11.632,14.133,11.632,23.074v3.218c0,5.008-4.302,7.51-13.062,7.51
		c-8.765,0-13.053-2.502-13.053-7.51v-0.896c0-3.761-1.438-6.797-4.12-9.126c-2.682-2.504-6.439-3.754-11.091-3.754
		c-4.654,0-8.229,1.07-10.916,3.218c-2.5,2.146-3.753,5.188-3.753,8.944c0,7.69,6.616,14.131,23.793,20.029
		c23.427,8.05,35.051,18.966,35.051,38.821c0,22.352-15.738,37.015-42.387,37.015c-12.704,0-22.894-3.394-30.767-10.366
		c-7.869-6.976-11.807-15.034-11.807-24.151v-1.594H206.938z"/>
	
		<linearGradient id="SVGID_5_" gradientUnits="userSpaceOnUse" x1="469.1982" y1="-221.0654" x2="556.36" y2="-117.1901" gradientTransform="matrix(1 0 0 -1 -164.27 -67.2148)">
		<stop  offset="0" style="stop-color:#F5E004"/>
		<stop  offset="0.0367" style="stop-color:#DCD322"/>
		<stop  offset="0.2131" style="stop-color:#63A143"/>
		<stop  offset="0.2906" style="stop-color:#0E9347"/>
		<stop  offset="0.3473" style="stop-color:#118E45"/>
		<stop  offset="0.6091" style="stop-color:#16783D"/>
		<stop  offset="0.8356" style="stop-color:#166C38"/>
		<stop  offset="0.9997" style="stop-color:#166735"/>
	</linearGradient>
	<path fill="url(#SVGID_5_)" d="M365.64,114.018h-35.772v35.774c0,5.012-4.298,7.508-13.058,7.508
		c-8.765,0-13.064-2.496-13.064-7.508V68.937c0-12.339,4.118-22.355,12.531-29.867c8.398-7.512,18.953-11.269,31.481-11.269
		c12.52,0,22.89,3.756,31.301,11.269c8.407,7.516,12.699,17.532,12.699,29.867v80.855c0,5.012-4.292,7.508-13.056,7.508
		c-8.766,0-13.063-2.496-13.063-7.508V114.018L365.64,114.018z M329.867,91.84h35.772V70.194c0-12.346-7.163-20.213-17.891-20.213
		c-10.736,0-17.888,7.867-17.888,20.213V91.84H329.867z"/>
	
		<linearGradient id="SVGID_6_" gradientUnits="userSpaceOnUse" x1="573.6074" y1="-207.3091" x2="652.1099" y2="-113.7537" gradientTransform="matrix(1 0 0 -1 -164.27 -67.2148)">
		<stop  offset="0" style="stop-color:#F5E004"/>
		<stop  offset="0.0367" style="stop-color:#DCD322"/>
		<stop  offset="0.2131" style="stop-color:#63A143"/>
		<stop  offset="0.2906" style="stop-color:#0E9347"/>
		<stop  offset="0.3473" style="stop-color:#118E45"/>
		<stop  offset="0.6091" style="stop-color:#16783D"/>
		<stop  offset="0.8356" style="stop-color:#166C38"/>
		<stop  offset="0.9997" style="stop-color:#166735"/>
	</linearGradient>
	<path fill="url(#SVGID_6_)" d="M406.546,121.887c0-5.01,4.3-7.506,13.061-7.506s13.053,2.496,13.053,7.506v0.535
		c0,7.869,6.802,13.414,16.282,13.414c10.198,0,16.091-4.83,16.091-13.233c0-9.299-5.898-14.49-24.503-20.396
		c-22.714-7.331-34.164-20.026-34.164-37.917c0-11.271,3.935-20.036,11.624-26.653c7.695-6.616,17.537-9.838,29.333-9.838
		c11.985,0,22.002,3.218,29.691,9.658c7.696,6.436,11.627,14.133,11.627,23.074v3.218c0,5.008-4.292,7.51-13.053,7.51
		c-8.765,0-13.061-2.502-13.061-7.51v-0.896c0-3.761-1.43-6.797-4.115-9.126c-2.683-2.504-6.441-3.754-11.09-3.754
		c-4.654,0-8.23,1.07-10.913,3.218c-2.502,2.146-3.759,5.188-3.759,8.944c0,7.69,6.621,14.131,23.789,20.029
		c23.428,8.05,35.055,18.966,35.055,38.821c0,22.352-15.738,37.015-42.39,37.015c-12.699,0-22.894-3.394-30.763-10.366
		c-7.869-6.976-11.806-15.034-11.806-24.151v-1.594H406.546z"/>
</g>
</svg>
